<svg width="273" height="103" viewBox="0 0 273 103" fill="none" xmlns="http://www.w3.org/2000/svg">
<rect x="14.0669" y="8.22208" width="120" height="73" rx="6" transform="rotate(11 14.0669 8.22208)" fill="#F7541B"/>
<path d="M53.6337 45.5399C55.1591 45.8364 56.432 46.4048 57.4525 47.2449C58.4893 48.074 59.2101 49.0983 59.6148 50.318C60.0196 51.5376 60.0844 52.8552 59.8092 54.2707C59.5367 55.6724 58.9776 56.8616 58.1317 57.8381C57.2996 58.8173 56.2448 59.5108 54.9676 59.9186C53.7067 60.3153 52.3204 60.3667 50.8087 60.0729L45.0574 58.9549L47.8823 44.422L53.6337 45.5399ZM51.1927 56.4465C52.3746 56.6763 53.365 56.5336 54.164 56.0186C54.9629 55.5036 55.4773 54.6552 55.707 53.4733C55.9394 52.2777 55.7817 51.2914 55.2338 50.5146C54.6887 49.7241 53.8251 49.2139 52.6432 48.9842L51.2415 48.7117L49.791 56.1741L51.1927 56.4465ZM74.3375 49.5643L73.7124 52.7801L67.8992 51.6502L67.4024 54.2063L71.6901 55.0398L71.0931 58.1113L66.8053 57.2778L65.6994 62.9674L61.659 62.182L64.484 47.649L74.3375 49.5643ZM80.1125 65.9187C78.4222 65.5902 77.1116 64.9218 76.1809 63.9137C75.2528 62.8918 74.8931 61.6239 75.1019 60.1099L79.4102 60.9474C79.3526 61.4639 79.4317 61.8643 79.6474 62.1487C79.8631 62.4331 80.177 62.6154 80.5893 62.6955C80.9604 62.7676 81.2801 62.7371 81.5484 62.6038C81.8332 62.4595 82.0077 62.2224 82.0718 61.8926C82.1546 61.4666 82.0194 61.098 81.6663 60.7869C81.3132 60.4758 80.718 60.0892 79.8808 59.6269C78.994 59.1265 78.2832 58.6746 77.7483 58.2711C77.2299 57.8566 76.8056 57.3248 76.4753 56.6759C76.1615 56.0159 76.0941 55.2255 76.2731 54.3047C76.4547 53.3702 76.8433 52.6186 77.4387 52.0497C78.0369 51.4672 78.7816 51.0842 79.673 50.9009C80.5643 50.7177 81.5322 50.7275 82.5767 50.9305C84.2671 51.2591 85.5364 51.9194 86.3847 52.9115C87.2494 53.8926 87.5772 55.1044 87.3681 56.547L82.9772 55.6935C83.049 55.251 82.9757 54.8945 82.7573 54.6239C82.5527 54.3559 82.2511 54.1832 81.8525 54.1057C81.5502 54.0469 81.2855 54.0882 81.0583 54.2294C80.8312 54.3707 80.6856 54.6062 80.6215 54.9361C80.5681 55.2109 80.6244 55.4715 80.7905 55.7177C80.9729 55.9528 81.2075 56.1767 81.4942 56.3893C81.7836 56.5882 82.2161 56.8576 82.7918 57.1977C83.6511 57.6928 84.3456 58.1558 84.8751 58.5868C85.421 59.0066 85.8522 59.5397 86.1687 60.186C86.5016 60.8212 86.5852 61.5648 86.4196 62.4168C86.2513 63.2826 85.8805 64.0164 85.3072 64.618C84.7476 65.2223 84.0168 65.6436 83.1147 65.8819C82.2264 66.1228 81.2257 66.1351 80.1125 65.9187Z" fill="white"/>
<rect x="134" y="30.8971" width="120" height="73" rx="6" transform="rotate(-11 134 30.8971)" fill="#FF8C00"/>
<path d="M190.066 57.0783C190.955 57.105 191.712 57.4002 192.334 57.9636C192.969 58.5107 193.367 59.2034 193.53 60.0417C193.77 61.2786 193.533 62.3302 192.817 63.1967C192.101 64.0633 190.974 64.6461 189.434 64.9453L182.24 66.3437L179.415 51.8107L186.383 50.4564C187.867 50.1679 189.092 50.272 190.059 50.7687C191.039 51.2627 191.645 52.1075 191.878 53.3032C192.043 54.1552 191.956 54.9139 191.614 55.5793C191.284 56.2282 190.768 56.7279 190.066 57.0783ZM184.577 56.7973L186.618 56.4006C187.635 56.203 188.062 55.685 187.899 54.8467C187.731 53.9809 187.138 53.6468 186.121 53.8445L184.081 54.2412L184.577 56.7973ZM187.997 61.8445C189.014 61.6468 189.44 61.122 189.274 60.2699C189.189 59.8302 188.986 59.5202 188.666 59.34C188.359 59.1571 187.959 59.1137 187.464 59.2099L185.134 59.6627L185.647 62.3013L187.997 61.8445ZM204.542 46.9266L205.167 50.1424L199.354 51.2724L199.85 53.8286L204.138 52.9951L204.735 56.0666L200.447 56.9001L201.553 62.5896L197.513 63.375L194.688 48.842L204.542 46.9266ZM216.023 59.9268C214.332 60.2554 212.867 60.1266 211.626 59.5406C210.383 58.9408 209.574 57.8999 209.201 56.418L213.509 55.5805C213.649 56.081 213.873 56.4227 214.179 56.6056C214.486 56.7884 214.845 56.8398 215.257 56.7597C215.628 56.6875 215.913 56.5394 216.112 56.3154C216.322 56.0749 216.395 55.7897 216.331 55.4599C216.248 55.0339 215.985 54.7428 215.541 54.5866C215.097 54.4305 214.4 54.2949 213.451 54.1799C212.441 54.0482 211.613 53.8954 210.966 53.7217C210.33 53.5316 209.737 53.1975 209.188 52.7195C208.65 52.2251 208.291 51.5176 208.112 50.5968C207.93 49.6623 208.009 48.8198 208.348 48.0693C208.684 47.3051 209.232 46.6711 209.989 46.1672C210.747 45.6634 211.648 45.3099 212.693 45.1069C214.383 44.7783 215.807 44.9151 216.965 45.5172C218.135 46.1028 218.893 47.1036 219.239 48.5195L214.848 49.373C214.749 48.9359 214.548 48.6328 214.244 48.4636C213.954 48.2918 213.609 48.2447 213.211 48.3221C212.908 48.3809 212.678 48.5183 212.521 48.7344C212.363 48.9504 212.316 49.2234 212.38 49.5532C212.434 49.828 212.584 50.0485 212.83 50.2146C213.087 50.3642 213.388 50.4839 213.734 50.5737C214.077 50.6497 214.579 50.7375 215.24 50.8372C216.222 50.9743 217.039 51.1434 217.692 51.3446C218.355 51.5294 218.955 51.8622 219.49 52.3428C220.037 52.807 220.393 53.4652 220.559 54.3172C220.727 55.183 220.658 56.0022 220.352 56.7749C220.059 57.5448 219.54 58.2092 218.792 58.768C218.059 59.3242 217.136 59.7104 216.023 59.9268Z" fill="white"/>
<path d="M268 73C270.5 82.5 261.5 84 261.5 84" stroke="#F89F1B" stroke-width="2"/>
<path d="M271 71C274 86.5 261 87.5 261 87.5" stroke="#F7541B" stroke-width="2"/>
<path d="M9.41662 14.5838C10.0182 4.77882 19.0352 6.1735 19.0352 6.1735" stroke="#F89F1B" stroke-width="2"/>
<path d="M6 15.5C8.00625 -0.15966 20.6652 2.96283 20.6652 2.96283" stroke="#F7541B" stroke-width="2"/>
</svg>
