<svg width="69" height="100" viewBox="0 0 69 100" fill="none" xmlns="http://www.w3.org/2000/svg">
<path d="M45.1967 7.92714L60.753 23.4835L17.6195 66.617C16.8385 67.398 15.5722 67.398 14.7911 66.617L2.06319 53.8891C1.28214 53.108 1.28214 51.8417 2.06319 51.0607L45.1967 7.92714Z" fill="#F89F1B"/>
<path d="M61.4731 9.80344L60.7531 23.4835L45.1967 7.92715L58.8768 7.20714C59.576 7.17034 60.2579 7.43204 60.7531 7.92715C61.2482 8.42225 61.5099 9.10423 61.4731 9.80344Z" fill="#F89F1B"/>
<path d="M33.1759 56.7175C33.9569 55.9365 35.2233 55.9365 36.0043 56.7175L62.1673 82.8805C62.9483 83.6615 62.9483 84.9279 62.1673 85.7089L56.5104 91.3658C51.8241 96.0521 44.2261 96.0521 39.5399 91.3658L20.448 72.2739C19.6669 71.4928 19.6669 70.2265 20.448 69.4454L33.1759 56.7175Z" fill="#F89F1B"/>
</svg>
