<svg width="144" height="118" viewBox="0 0 144 118" fill="none" xmlns="http://www.w3.org/2000/svg">
<mask id="path-2-inside-1_13_67" fill="white">
<path d="M122 40.7513C122 43.0112 124.472 44.5175 126.706 44.1745C127.454 44.0596 128.22 44 129 44C137.284 44 144 50.7157 144 59C144 67.2843 137.284 74 129 74C128.22 74 127.453 73.9403 126.705 73.8253C124.472 73.482 122 74.988 122 77.2479V106C122 107.657 120.657 109 119 109H90.2479C87.988 109 86.482 106.528 86.8253 104.295C86.9403 103.547 87 102.78 87 102C87 93.7157 80.2843 87 72 87C63.7157 87 57 93.7157 57 102C57 102.78 57.0597 103.547 57.1747 104.295C57.518 106.528 56.012 109 53.7521 109H25C23.3431 109 22 107.657 22 106V77.2479C22 74.988 19.5283 73.482 17.2946 73.8253C16.5465 73.9403 15.7802 74 15 74C6.71573 74 5.26656e-07 67.2843 0 59C-5.26656e-07 50.7157 6.71573 44 15 44C15.7802 44 16.5465 44.0596 17.2945 44.1745C19.5282 44.5175 22 43.0112 22 40.7513V12C22 10.3431 23.3431 9 25 9H53.7521C56.012 9 57.518 11.4717 57.1747 13.7054C57.0597 14.4535 57 15.2198 57 16C57 24.2843 63.7157 31 72 31C80.2843 31 87 24.2843 87 16C87 15.2198 86.9403 14.4535 86.8253 13.7054C86.482 11.4717 87.988 9 90.2479 9H119C120.657 9 122 10.3431 122 12V40.7513Z"/>
</mask>
<path d="M122 40.7513C122 43.0112 124.472 44.5175 126.706 44.1745C127.454 44.0596 128.22 44 129 44C137.284 44 144 50.7157 144 59C144 67.2843 137.284 74 129 74C128.22 74 127.453 73.9403 126.705 73.8253C124.472 73.482 122 74.988 122 77.2479V106C122 107.657 120.657 109 119 109H90.2479C87.988 109 86.482 106.528 86.8253 104.295C86.9403 103.547 87 102.78 87 102C87 93.7157 80.2843 87 72 87C63.7157 87 57 93.7157 57 102C57 102.78 57.0597 103.547 57.1747 104.295C57.518 106.528 56.012 109 53.7521 109H25C23.3431 109 22 107.657 22 106V77.2479C22 74.988 19.5283 73.482 17.2946 73.8253C16.5465 73.9403 15.7802 74 15 74C6.71573 74 5.26656e-07 67.2843 0 59C-5.26656e-07 50.7157 6.71573 44 15 44C15.7802 44 16.5465 44.0596 17.2945 44.1745C19.5282 44.5175 22 43.0112 22 40.7513V12C22 10.3431 23.3431 9 25 9H53.7521C56.012 9 57.518 11.4717 57.1747 13.7054C57.0597 14.4535 57 15.2198 57 16C57 24.2843 63.7157 31 72 31C80.2843 31 87 24.2843 87 16C87 15.2198 86.9403 14.4535 86.8253 13.7054C86.482 11.4717 87.988 9 90.2479 9H119C120.657 9 122 10.3431 122 12V40.7513Z" fill="#F89F1B"/>
<path d="M129 44L129 43H129L129 44ZM129 74L129 73L129 74ZM87 102L86 102L87 102ZM72 87L72 86L72 87ZM57 102L56 102V102L57 102ZM15 74L15 75L15 75L15 74ZM0 59L-1 59L0 59ZM15 44L15 45L15 44ZM57 16L58 16L57 16ZM87 16L88 16V16L87 16ZM57.1747 13.7054L56.1863 13.5535L57.1747 13.7054ZM17.2946 73.8253L17.4465 74.8137L17.2946 73.8253ZM126.705 73.8253L126.554 74.8137L126.705 73.8253ZM57.1747 104.295L58.163 104.143L57.1747 104.295ZM17.2945 44.1745L17.4463 43.186L17.2945 44.1745ZM126.706 44.1745L126.857 45.1629L126.706 44.1745ZM126.706 44.1745L126.857 45.1629C127.555 45.0557 128.271 45 129 45L129 44L129 43C128.169 43 127.352 43.0635 126.554 43.186L126.706 44.1745ZM129 44L129 45C136.732 45 143 51.268 143 59L144 59L145 59C145 50.1634 137.837 43 129 43L129 44ZM144 59L143 59C143 66.732 136.732 73 129 73L129 74L129 75C137.837 75 145 67.8366 145 59L144 59ZM129 74L129 73C128.271 73 127.555 72.9442 126.857 72.837L126.705 73.8253L126.554 74.8137C127.352 74.9364 128.169 75 129 75L129 74ZM122 77.2479H121V106H122H123V77.2479H122ZM119 109V108H90.2479V109V110H119V109ZM86.8253 104.295L87.8137 104.446C87.9364 103.648 88 102.831 88 102L87 102L86 102C86 102.729 85.9442 103.445 85.837 104.143L86.8253 104.295ZM87 102L88 102C88 93.1634 80.8366 86 72 86L72 87L72 88C79.732 88 86 94.268 86 102L87 102ZM72 87L72 86C63.1634 86 56 93.1634 56 102L57 102L58 102C58 94.268 64.268 88 72 88L72 87ZM57 102L56 102C56 102.831 56.0636 103.648 56.1863 104.446L57.1747 104.295L58.163 104.143C58.0558 103.445 58 102.729 58 102L57 102ZM53.7521 109V108H25V109V110H53.7521V109ZM22 106H23V77.2479H22H21V106H22ZM17.2946 73.8253L17.1426 72.837C16.4447 72.9442 15.7292 73 15 73L15 74L15 75C15.8313 75 16.6484 74.9364 17.4465 74.8137L17.2946 73.8253ZM15 74L15 73C7.26801 73 1 66.732 1 59L0 59L-1 59C-0.999999 67.8366 6.16344 75 15 75L15 74ZM0 59L1 59C1 51.268 7.26801 45 15 45L15 44L15 43C6.16344 43 -1 50.1634 -1 59L0 59ZM15 44L15 45C15.7292 45 16.4447 45.0557 17.1427 45.1629L17.2945 44.1745L17.4463 43.186C16.6482 43.0635 15.8312 43 15 43L15 44ZM22 40.7513H23V12H22H21V40.7513H22ZM25 9V10H53.7521V9V8H25V9ZM57.1747 13.7054L56.1863 13.5535C56.0636 14.3516 56 15.1687 56 16L57 16L58 16C58 15.2708 58.0558 14.5553 58.163 13.8574L57.1747 13.7054ZM57 16L56 16C56 24.8366 63.1634 32 72 32L72 31L72 30C64.268 30 58 23.732 58 16L57 16ZM72 31L72 32C80.8366 32 88 24.8366 88 16L87 16L86 16C86 23.732 79.732 30 72 30L72 31ZM87 16L88 16C88 15.1687 87.9364 14.3516 87.8137 13.5535L86.8253 13.7054L85.837 13.8574C85.9442 14.5553 86 15.2708 86 16L87 16ZM90.2479 9V10H119V9V8H90.2479V9ZM122 12H121V40.7513H122H123V12H122ZM53.7521 9V10C54.4851 10 55.144 10.3949 55.6152 11.0812C56.0923 11.7758 56.318 12.6967 56.1863 13.5535L57.1747 13.7054L58.163 13.8574C58.3747 12.4804 58.0191 11.0486 57.2639 9.94899C56.5031 8.841 55.2789 8 53.7521 8V9ZM22 77.2479H23C23 75.7211 22.159 74.4969 21.051 73.7361C19.9514 72.9809 18.5196 72.6253 17.1426 72.837L17.2946 73.8253L17.4465 74.8137C18.3033 74.682 19.2242 74.9077 19.9188 75.3848C20.6051 75.856 21 76.5149 21 77.2479H22ZM22 12H23C23 10.8954 23.8954 10 25 10V9V8C22.7909 8 21 9.79086 21 12H22ZM90.2479 109V108C89.5149 108 88.856 107.605 88.3848 106.919C87.9077 106.224 87.682 105.303 87.8137 104.446L86.8253 104.295L85.837 104.143C85.6253 105.52 85.9809 106.951 86.7361 108.051C87.4969 109.159 88.7211 110 90.2479 110V109ZM126.705 73.8253L126.857 72.837C125.48 72.6253 124.049 72.9809 122.949 73.7361C121.841 74.4969 121 75.7211 121 77.2479H122H123C123 76.5149 123.395 75.856 124.081 75.3848C124.776 74.9077 125.697 74.682 126.554 74.8137L126.705 73.8253ZM57.1747 104.295L56.1863 104.446C56.318 105.303 56.0923 106.224 55.6152 106.919C55.144 107.605 54.4851 108 53.7521 108V109V110C55.2789 110 56.5031 109.159 57.2639 108.051C58.0191 106.951 58.3747 105.52 58.163 104.143L57.1747 104.295ZM17.2945 44.1745L17.1427 45.1629C18.5197 45.3743 19.9514 45.0185 21.051 44.2632C22.159 43.5023 23 42.2781 23 40.7513H22H21C21 41.4843 20.6051 42.1432 19.9187 42.6146C19.224 43.0918 18.3031 43.3176 17.4463 43.186L17.2945 44.1745ZM122 106H121C121 107.105 120.105 108 119 108V109V110C121.209 110 123 108.209 123 106H122ZM86.8253 13.7054L87.8137 13.5535C87.682 12.6967 87.9077 11.7758 88.3848 11.0812C88.856 10.3949 89.5149 10 90.2479 10V9V8C88.7211 8 87.4969 8.841 86.7361 9.94899C85.9809 11.0486 85.6253 12.4804 85.837 13.8574L86.8253 13.7054ZM25 109V108C23.8954 108 23 107.105 23 106H22H21C21 108.209 22.7909 110 25 110V109ZM119 9V10C120.105 10 121 10.8954 121 12H122H123C123 9.79086 121.209 8 119 8V9ZM126.706 44.1745L126.554 43.186C125.697 43.3176 124.776 43.0918 124.081 42.6146C123.395 42.1432 123 41.4843 123 40.7513H122H121C121 42.2781 121.841 43.5023 122.949 44.2632C124.049 45.0185 125.48 45.3743 126.857 45.1629L126.706 44.1745Z" fill="#F89F1B" mask="url(#path-2-inside-1_13_67)"/>
<g clip-path="url(#clip0_13_67)">
<path d="M76.095 44.0679C75.1388 43.7903 74.1432 44.3511 73.8675 45.314L66.6675 70.689C66.3919 71.6518 66.9488 72.6544 67.905 72.9319C68.8613 73.2095 69.8569 72.6487 70.1325 71.6858L77.3325 46.3108C77.6082 45.3479 77.0513 44.3454 76.095 44.0679ZM80.6288 50.8704C79.9257 51.5784 79.9257 52.7282 80.6288 53.4362L85.6519 58.4999L80.6232 63.5636C79.92 64.2716 79.92 65.4214 80.6232 66.1294C81.3263 66.8374 82.4681 66.8374 83.1713 66.1294L89.4713 59.7856C90.1744 59.0776 90.1744 57.9278 89.4713 57.2198L83.1713 50.8761C82.4681 50.1681 81.3263 50.1681 80.6232 50.8761L80.6288 50.8704ZM63.3769 50.8704C62.6738 50.1624 61.5319 50.1624 60.8288 50.8704L54.5288 57.2141C53.8257 57.9222 53.8257 59.072 54.5288 59.78L60.8288 66.1237C61.5319 66.8317 62.6738 66.8317 63.3769 66.1237C64.08 65.4157 64.08 64.2659 63.3769 63.5579L58.3482 58.4999L63.3769 53.4362C64.08 52.7282 64.08 51.5784 63.3769 50.8704Z" fill="white"/>
</g>
<defs>
<clipPath id="clip0_13_67">
<rect width="36" height="29" fill="white" transform="translate(54 44)"/>
</clipPath>
</defs>
</svg>
