<svg width="63" height="41" viewBox="0 0 63 41" fill="none" xmlns="http://www.w3.org/2000/svg">
<rect x="7" y="7" width="56" height="34" rx="6" fill="#FF8C00"/>
<rect width="56" height="34" rx="6" fill="#F89F1B"/>
<path d="M26.8112 9.65881C27.1854 8.50717 28.8146 8.50718 29.1888 9.65881L30.189 12.7371C30.3564 13.2521 30.8363 13.6008 31.3778 13.6008H34.6145C35.8254 13.6008 36.3289 15.1503 35.3492 15.8621L32.7307 17.7646C32.2926 18.0829 32.1093 18.6471 32.2766 19.1621L33.2768 22.2404C33.651 23.392 32.3329 24.3497 31.3533 23.6379L28.7347 21.7354C28.2966 21.4171 27.7034 21.4171 27.2653 21.7354L24.6467 23.6379C23.6671 24.3497 22.349 23.392 22.7232 22.2404L23.7234 19.1621C23.8907 18.6471 23.7074 18.0829 23.2693 17.7646L20.6507 15.8621C19.6711 15.1503 20.1746 13.6008 21.3855 13.6008H24.6222C25.1637 13.6008 25.6436 13.2521 25.811 12.7371L26.8112 9.65881Z" fill="white"/>
</svg>
