<svg width="63" height="41" viewBox="0 0 63 41" fill="none" xmlns="http://www.w3.org/2000/svg">
<rect x="7" y="7" width="56" height="34" rx="6" fill="#FF8C00"/>
<rect width="56" height="34" rx="6" fill="#F89F1B"/>
<path d="M21.7969 23.0703C21.2422 22.5156 21.2656 21.5547 21.7812 21.0469L25.9609 16.8672L21.7812 12.6953C21.2656 12.1875 21.25 11.2344 21.7969 10.6797C22.3516 10.125 23.3125 10.1484 23.8203 10.6562L28 14.8281L32.1641 10.6641C32.7031 10.125 33.625 10.1328 34.1797 10.6875C34.7344 11.2344 34.7422 12.1641 34.2031 12.7031L30.0391 16.8672L34.2031 21.0391C34.7422 21.5781 34.7344 22.5078 34.1797 23.0625C33.6328 23.6172 32.7031 23.6172 32.1641 23.0781L28 18.9062L23.8203 23.0859C23.3125 23.5938 22.3516 23.6172 21.7969 23.0703Z" fill="#F71B1B"/>
</svg>
